<svg width="14" height="14" viewBox="0 0 14 14" fill="none" xmlns="http://www.w3.org/2000/svg">
<path d="M13.9663 4.71789L12.7997 0.634503C12.7357 0.411458 12.5859 0.222895 12.3831 0.110213C12.1803 -0.0024678 11.941 -0.0300575 11.7179 0.0335017L7.63454 1.20018C7.52402 1.23173 7.4208 1.28474 7.33077 1.35618C7.24074 1.42763 7.16567 1.51611 7.10984 1.61657C7.05401 1.71704 7.01852 1.82752 7.00539 1.9417C6.99226 2.05588 7.00176 2.17153 7.03333 2.28204C7.06491 2.39255 7.11794 2.49576 7.18941 2.58578C7.26088 2.67579 7.34937 2.75084 7.44985 2.80664C7.55033 2.86245 7.66081 2.89791 7.775 2.91101C7.88918 2.92411 8.00483 2.91459 8.11533 2.88298L9.69025 2.43302L6.73505 7.71007L5.49162 6.46677C5.36787 6.34295 5.21783 6.24857 5.05264 6.19063C4.88745 6.13269 4.71134 6.11268 4.53736 6.13208C4.36338 6.15147 4.19599 6.20978 4.04762 6.30268C3.89924 6.39558 3.77368 6.52068 3.68024 6.66872L0.180236 12.2105C0.0150267 12.4721 -0.0394959 12.7886 0.0286632 13.0904C0.0968222 13.3922 0.28208 13.6545 0.543681 13.8198C0.805282 13.985 1.1218 14.0395 1.4236 13.9713C1.7254 13.9032 1.98776 13.7179 2.15297 13.4563L4.87368 9.14877L6.17493 10.4499C6.30239 10.5773 6.45765 10.6735 6.62853 10.7309C6.7994 10.7883 6.98124 10.8053 7.15979 10.7806C7.33834 10.7559 7.50874 10.6902 7.65763 10.5886C7.80651 10.4869 7.92984 10.3522 8.01792 10.195L11.7877 3.46317L12.2835 5.1987C12.3473 5.42185 12.4971 5.61054 12.7 5.72325C12.9028 5.83596 13.1422 5.86346 13.3653 5.7997C13.5885 5.73594 13.7772 5.58614 13.8899 5.38327C14.0026 5.18039 14.0301 4.94105 13.9663 4.7179V4.71789Z" fill="#D76C6C"/>
</svg>
